<svg id="Ebene_1" data-name="Ebene 1" xmlns="http://www.w3.org/2000/svg" viewBox="0 0 750 850"><defs><style>.cls-1{fill:#cfcfcf;}</style></defs><path class="cls-1" d="M653.21,105A26.82,26.82,0,0,1,680,131.79V868.21A26.82,26.82,0,0,1,653.21,895H346.79A26.82,26.82,0,0,1,320,868.21V131.79A26.82,26.82,0,0,1,346.79,105H653.21m0-30H346.79A56.8,56.8,0,0,0,290,131.79V868.21A56.8,56.8,0,0,0,346.79,925H653.21A56.8,56.8,0,0,0,710,868.21V131.79A56.8,56.8,0,0,0,653.21,75Z" transform="translate(-290 -75)"/><rect class="cls-1" x="113" y="10" width="194" height="52" rx="21.47"/><polygon class="cls-1" points="255.75 340.4 208.72 357.81 154.07 340.4 145.17 345.49 145.17 414.13 138.81 415.4 138.81 360.74 124.83 356.93 118.48 360.93 118.48 490.39 124.83 492.93 139.39 490.39 139.39 432.78 146.44 431.92 146.44 499.52 155.34 501.82 170.59 499.28 170.59 368.37 211.26 378.54 241.77 369.64 241.77 499.28 255.76 501.82 301.51 490.39 301.51 475.65 288.8 473.86 265.92 476.4 265.92 431.92 288.8 433.19 301.51 433.19 301.51 417.94 265.92 414.13 265.92 369.64 288.8 378.54 301.51 375.5 301.51 360.85 255.75 340.4 255.75 340.4"/></svg>