<svg id="Ebene_1" data-name="Ebene 1" xmlns="http://www.w3.org/2000/svg" viewBox="0 0 860.51 437"><defs><style>.cls-1,.cls-3{fill:none;stroke:#cfcfcf;stroke-miterlimit:10;stroke-width:30px;}.cls-2{fill:#cfcfcf;}.cls-3{stroke-linecap:round;}</style></defs><path class="cls-1" d="M865.1,801.16H801.81a86.82,86.82,0,1,0-173.63,0H473.1a86.82,86.82,0,1,0-173.63,0H243V449h449.9l52.48,161.67,110.42,12.64Z" transform="translate(-20.4 -434)"/><circle class="cls-1" cx="365.96" cy="367.76" r="52.24"/><circle class="cls-1" cx="694.13" cy="369.76" r="52.24"/><polygon class="cls-1" points="642.34 51.93 499.79 51.93 499.79 165.19 679.43 164.87 642.34 51.93"/><polygon class="cls-2" points="394.38 87 357.56 100.63 314.77 87 307.8 90.98 307.8 144.72 302.83 145.72 302.83 102.92 291.88 99.94 286.9 103.07 286.9 204.43 291.88 206.42 303.28 204.43 303.28 159.33 308.8 158.65 308.8 211.58 315.76 213.39 327.7 211.4 327.7 108.89 359.55 116.86 383.44 109.89 383.44 211.4 394.39 213.39 430.21 204.43 430.21 192.9 420.26 191.49 402.34 193.49 402.34 158.65 420.26 159.65 430.21 159.65 430.21 147.71 402.34 144.72 402.34 109.89 420.26 116.86 430.21 114.48 430.21 103.01 394.38 87 394.38 87"/><line class="cls-3" x1="19.6" y1="130" x2="145.41" y2="130"/><line class="cls-3" x1="69.78" y1="191.08" x2="121.58" y2="191.08"/><line class="cls-3" x1="15" y1="251.78" x2="140.81" y2="251.78"/></svg>