<svg id="Ebene_1" data-name="Ebene 1" xmlns="http://www.w3.org/2000/svg" viewBox="0 0 848.61 867.95"><defs><style>.cls-1{fill:none;stroke:#cfcfcf;stroke-miterlimit:10;stroke-width:10px;}.cls-2{fill:#cfcfcf;}</style></defs><path class="cls-1" d="M110.58,500.46c.27-214.88,174.56-389,389.5-389s389.23,174.12,389.5,389" transform="translate(-105.42 -25.59)"/><path class="cls-1" d="M110.57,500.37c.27-171.9,174.56-311.2,389.5-311.2s389.23,139.3,389.5,311.2" transform="translate(-105.42 -25.59)"/><path class="cls-1" d="M110.55,500.28c.27-128.93,174.56-233.4,389.5-233.4s389.23,104.47,389.5,233.4" transform="translate(-105.42 -25.59)"/><path class="cls-1" d="M110.53,500.18c.27-85.95,174.56-155.6,389.5-155.6s389.23,69.65,389.5,155.6" transform="translate(-105.42 -25.59)"/><path class="cls-1" d="M110.52,500.09c.27-43,174.56-77.8,389.5-77.8s389.23,34.83,389.5,77.8" transform="translate(-105.42 -25.59)"/><path class="cls-1" d="M110.5,500h779" transform="translate(-105.42 -25.59)"/><path class="cls-1" d="M110.48,499.91c.27,43,174.56,77.8,389.5,77.8s389.23-34.83,389.5-77.8" transform="translate(-105.42 -25.59)"/><path class="cls-1" d="M110.47,499.82c.27,85.95,174.56,155.6,389.5,155.6s389.23-69.65,389.5-155.6" transform="translate(-105.42 -25.59)"/><path class="cls-1" d="M110.45,499.72C110.72,628.65,285,733.12,500,733.12s389.23-104.47,389.5-233.4" transform="translate(-105.42 -25.59)"/><path class="cls-1" d="M110.43,499.63c.27,171.9,174.56,311.2,389.5,311.2s389.23-139.3,389.5-311.2" transform="translate(-105.42 -25.59)"/><path class="cls-1" d="M110.42,499.54c.27,214.88,174.56,389,389.5,389s389.23-174.12,389.5-389" transform="translate(-105.42 -25.59)"/><path class="cls-1" d="M500.45,881.83C289.76,881.57,119,710.67,119,499.92S289.76,118.26,500.45,118" transform="translate(-105.42 -25.59)"/><path class="cls-1" d="M500.36,881.85c-168.56-.26-305.14-171.16-305.14-381.92S331.8,118.28,500.36,118" transform="translate(-105.42 -25.59)"/><path class="cls-1" d="M500.27,881.87C373.85,881.6,271.42,710.71,271.42,500S373.85,118.3,500.27,118" transform="translate(-105.42 -25.59)"/><path class="cls-1" d="M500.18,881.88C415.9,881.62,347.61,710.72,347.61,500S415.9,118.31,500.18,118.05" transform="translate(-105.42 -25.59)"/><path class="cls-1" d="M500.09,881.9C458,881.64,423.81,710.74,423.81,500S458,118.33,500.09,118.07" transform="translate(-105.42 -25.59)"/><path class="cls-1" d="M500,881.92V118.08" transform="translate(-105.42 -25.59)"/><path class="cls-1" d="M499.91,881.93c42.14-.26,76.28-171.16,76.28-381.91S542.05,118.36,499.91,118.1" transform="translate(-105.42 -25.59)"/><path class="cls-1" d="M499.82,882C584.1,881.69,652.39,710.79,652.39,500S584.1,118.38,499.82,118.12" transform="translate(-105.42 -25.59)"/><path class="cls-1" d="M499.73,882c126.42-.27,228.85-171.16,228.85-381.92S626.15,118.4,499.73,118.13" transform="translate(-105.42 -25.59)"/><path class="cls-1" d="M499.64,882c168.56-.26,305.14-171.16,305.14-381.91S668.2,118.41,499.64,118.15" transform="translate(-105.42 -25.59)"/><path class="cls-1" d="M499.55,882C710.24,881.74,881,710.84,881,500.08S710.24,118.43,499.55,118.17" transform="translate(-105.42 -25.59)"/><polygon class="cls-2" points="802.86 0 755.83 17.4 701.17 0 692.28 5.08 692.28 73.72 685.92 74.99 685.92 20.34 671.94 16.52 665.59 20.53 665.59 149.98 671.94 152.52 686.5 149.98 686.5 92.37 693.55 91.51 693.55 159.12 702.44 161.42 717.7 158.88 717.7 27.96 758.37 38.13 788.87 29.23 788.87 158.88 802.86 161.42 848.61 149.98 848.61 135.25 835.9 133.46 813.02 136 813.02 91.51 835.9 92.78 848.61 92.78 848.61 77.53 813.02 73.72 813.02 29.23 835.9 38.13 848.61 35.09 848.61 20.45 802.86 0 802.86 0"/></svg>