<svg xmlns="http://www.w3.org/2000/svg" viewBox="0 0 890.06 802"><defs><style>.cls-1,.cls-3{fill:none;stroke:#cfcfcf;stroke-linecap:round;stroke-miterlimit:10;}.cls-1{stroke-width:17px;}.cls-2{fill:#cfcfcf;}.cls-3{stroke-width:30px;}</style></defs><g id="Ebene_1" data-name="Ebene 1"><path class="cls-1" d="M270.5,894.5l-200-.18V730a141.59,141.59,0,0,1,46.15-104.75A131.75,131.75,0,0,0,271.5,652.12" transform="translate(-61.96 -108)"/><path class="cls-1" d="M270.88,624.83A117.59,117.59,0,1,1,319.36,473" transform="translate(-61.96 -108)"/><path class="cls-1" d="M271,609.89" transform="translate(-61.96 -108)"/><path class="cls-2" d="M653.15,489.52A190,190,0,0,1,697,611.5V880H314V611.5a190.86,190.86,0,0,1,43.39-121.43A233.06,233.06,0,0,0,505,542a236.59,236.59,0,0,0,148.15-52.48m1.29-42A205.48,205.48,0,0,1,356,448,221,221,0,0,0,284,611.5V910H727V611.5a220.78,220.78,0,0,0-64.88-156.62q-3.75-3.75-7.68-7.33Z" transform="translate(-61.96 -108)"/><path class="cls-3" d="M689.5,306.5a183.5,183.5,0,0,1-367,0C322.5,205.16,404.66,123,506,123S689.5,205.16,689.5,306.5Z" transform="translate(-61.96 -108)"/><path class="cls-1" d="M743.48,897.31l200-.18V732.85A141.59,141.59,0,0,0,897.37,628.1a131.75,131.75,0,0,1-154.89,26.83" transform="translate(-61.96 -108)"/><path class="cls-1" d="M743.1,627.64a117.59,117.59,0,1,0-48.48-151.79" transform="translate(-61.96 -108)"/><path class="cls-1" d="M743,612.7" transform="translate(-61.96 -108)"/></g><g id="Ebene_2" data-name="Ebene 2"><polygon class="cls-2" points="502.54 504.79 448.58 524.76 385.87 504.79 375.67 510.63 375.67 589.38 368.37 590.83 368.37 528.13 352.33 523.75 345.04 528.35 345.04 676.88 352.33 679.79 369.03 676.88 369.03 610.78 377.12 609.79 377.12 687.36 387.33 690 404.83 687.08 404.83 536.88 451.5 548.54 486.5 538.33 486.5 687.08 502.55 690 555.04 676.88 555.04 659.97 540.46 657.92 514.21 660.83 514.21 609.79 540.46 611.25 555.04 611.25 555.04 593.75 514.21 589.38 514.21 538.33 540.46 548.54 555.04 545.06 555.04 528.25 502.54 504.79 502.54 504.79"/></g></svg>