<svg id="Ebene_1" data-name="Ebene 1" xmlns="http://www.w3.org/2000/svg" viewBox="0 0 825.48 872.65"><defs><style>.cls-1{fill:none;stroke:#cfcfcf;stroke-miterlimit:10;stroke-width:30px;}.cls-2{fill:#cfcfcf;}</style></defs><polyline class="cls-1" points="15 60.65 15 857.65 789 857.65"/><polyline class="cls-1" points="15 857.65 111 694.65 170 769.65 248 534.65 350 656.65 444.04 426.04 548 585.65 789 60.65"/><polygon class="cls-2" points="825.48 92.33 816.84 0 741.2 53.63 825.48 92.33"/><polygon class="cls-2" points="400.33 45.79 321.54 74.94 229.96 45.79 215.06 54.3 215.06 169.31 204.41 171.44 204.41 79.86 180.98 73.47 170.33 80.18 170.33 297.08 180.98 301.34 205.37 297.08 205.37 200.56 217.18 199.12 217.18 312.39 232.09 316.25 257.65 311.99 257.65 92.64 325.8 109.67 376.91 94.77 376.91 311.99 400.35 316.25 477 297.08 477 272.4 455.7 269.4 417.37 273.66 417.37 199.12 455.7 201.25 477 201.25 477 175.69 417.37 169.31 417.37 94.77 455.7 109.67 477 104.59 477 80.04 400.33 45.79 400.33 45.79"/></svg>